# xmcd
#
# Track frame offsets:
#	150
#	19232
#	36735
#	50890
#	68689
#	83490
#	97172
#	109510
#	124498
#	139832
#
# Disc length: 2458 seconds
#
# Revision: 0
# Processed by: cddbd v1.5.1PL0 Copyright (c) Steve Scherf et al.
# Submitted via: dBpowerAMP V4.0
#
DISCID=9209980a
DTITLE=Cisco - 7740 Valmont St.
DYEAR=2004
DGENRE=Country
TTITLE0=7740 Valmont St.
TTITLE1=Say A Prayer
TTITLE2=Miss America*
TTITLE3=Something's Gone Wrong
TTITLE4=One Day
TTITLE5=Lost Broke or Sold
TTITLE6=The Other Side
TTITLE7=I'm Yours
TTITLE8=Dog Eared Memories
TTITLE9=Long Hard Ride
EXTD=
EXTT0=
EXTT1=
EXTT2=
EXTT3=
EXTT4=
EXTT5=
EXTT6=
EXTT7=
EXTT8=
EXTT9=
PLAYORDER=
